<?xml version="1.0" encoding="UTF-8"?>
<svg version="1.1" xmlns="http://www.w3.org/2000/svg" width="512" height="512">
<path d="M0 0 C8.9615053 5.44689117 12.21363333 13.10462567 15.19921875 22.82421875 C19.18829572 35.70035329 25.63479779 46.54337717 36.3125 54.9375 C38.65450583 56.14863528 38.65450583 56.14863528 41.3125 55.9375 C43.92668404 54.80712098 46.28052921 53.63566243 48.75 52.25 C68.89298464 41.55187322 93.39395166 39.60659593 115.3125 45.9375 C122.44305686 48.26111931 129.02104759 51.01299784 135.3125 55.1171875 C138.1062453 56.2630596 139.47889217 55.94269422 142.3125 54.9375 C153.42198212 46.25710079 160.18344256 34.20347142 164.23046875 20.92578125 C167.17502375 11.34696357 170.67481794 4.97125978 179.48046875 -0.15234375 C186.26660728 -3.52370895 196.72560331 -3.27338808 204.03515625 -1.34375 C208.17890566 0.63630752 211.3090978 3.5169586 214.3125 6.9375 C215.034375 7.741875 215.75625 8.54625 216.5 9.375 C221.32114531 16.19110199 221.06182261 23.92369183 220.3125 31.9375 C215.42195056 58.74209244 198.4414814 83.38985689 177.4453125 100.23828125 C174.88969185 102.83002217 174.88969185 102.83002217 175.6640625 106.4609375 C176.05893316 107.75420516 176.48464897 109.03837676 176.9375 110.3125 C179.41199145 117.96941694 180.45312724 124.92174734 180.3125 132.9375 C181.38564453 132.97617187 181.38564453 132.97617187 182.48046875 133.015625 C201.71677068 134.11057621 217.09923823 142.2602611 230.3125 155.9375 C234.3125 160.57189065 234.3125 160.57189065 234.3125 162.9375 C248.87769023 155.49995605 258.75663817 142.13268395 264.3125 126.9375 C265.15663192 124.21759683 265.94931452 121.48295198 266.75 118.75 C269.24950515 110.28307437 272.80480663 103.88159076 280.3125 98.9375 C288.01905308 94.93602051 295.40712621 94.10618507 303.828125 96.09375 C312.12187265 98.91049448 317.33576675 104.26712299 321.3125 111.9375 C326.56932584 125.31851122 320.9473182 139.82662495 315.84375 152.4921875 C310.39136683 164.76004963 303.9625478 175.66985214 295.3125 185.9375 C294.57128906 186.83082031 293.83007812 187.72414062 293.06640625 188.64453125 C280.49575867 203.23186026 264.45579153 212.71571733 247.3125 220.9375 C246.9825 231.1675 246.6525 241.3975 246.3125 251.9375 C251.32179688 251.87949219 256.33109375 251.82148438 261.4921875 251.76171875 C264.68232443 251.73614452 267.8723334 251.71207333 271.0625 251.69335938 C276.11648087 251.6635706 281.17000506 251.62848709 286.22363281 251.56030273 C290.30207417 251.50562561 294.38002524 251.47600516 298.45880508 251.46311378 C300.00804478 251.45393739 301.55726029 251.43601897 303.10628891 251.40884972 C313.7162551 251.23030516 321.65750701 252.2878391 330.125 259.25 C336.96101073 267.64852746 339.07949512 274.09631902 338.3125 284.9375 C337.07488976 292.548803 332.99648297 297.87266517 327.3125 302.9375 C321.01309681 307.14096206 315.00851766 308.06495087 307.50268555 308.05102539 C306.83871262 308.05117142 306.17473969 308.05131744 305.49064636 308.0514679 C303.31013651 308.05077483 301.12971356 308.04301099 298.94921875 308.03515625 C297.4317886 308.03328992 295.91435785 308.03186703 294.39692688 308.03086853 C290.41358765 308.02706032 286.4302852 308.01724459 282.44696045 308.00616455 C278.37805682 307.99591389 274.30914721 307.99136309 270.24023438 307.98632812 C262.26430609 307.97562074 254.28840763 307.95856478 246.3125 307.9375 C246.32183563 308.65597107 246.33117126 309.37444214 246.34078979 310.11468506 C246.37996918 315.30625254 246.31443993 320.31118988 245.5078125 325.453125 C245.33636719 326.55914062 245.16492188 327.66515625 244.98828125 328.8046875 C244.80652344 329.92101562 244.62476563 331.03734375 244.4375 332.1875 C244.17646484 333.88519531 244.17646484 333.88519531 243.91015625 335.6171875 C243.02939625 341.18880999 242.03646059 346.56371293 240.3125 351.9375 C241.27349609 352.06318359 241.27349609 352.06318359 242.25390625 352.19140625 C268.17285365 358.51390811 292.59398747 381.03794302 306.11328125 403.16796875 C315.48645116 418.99996163 326.02267319 439.23458478 322.953125 458.15234375 C320.93985459 465.8925523 315.62068076 472.19913021 308.921875 476.45703125 C300.88048038 480.12753879 292.20341012 480.29076273 283.9375 477.25 C276.07824537 473.62845547 271.66161838 468.80252638 268.3125 460.9375 C267.46613287 458.33833383 266.65248631 455.74424173 265.875 453.125 C260.50287532 435.06869206 250.16173873 419.81434868 233.45727539 410.46533203 C227.26620668 406.99254162 227.26620668 406.99254162 220.3125 405.9375 C219.80203125 406.89527344 219.2915625 407.85304688 218.765625 408.83984375 C207.86543426 428.9383462 193.989974 446.36998759 178.3125 462.9375 C177.67441406 463.618125 177.03632813 464.29875 176.37890625 465 C171.43001094 470.12691313 165.8841292 474.51082602 160.3125 478.9375 C159.36890625 479.70964844 158.4253125 480.48179687 157.453125 481.27734375 C132.81045699 500.97232582 109.21507954 512.00235689 77.3125 509.9375 C40.67420841 505.78724285 4.22599926 470.67405744 -17.7421875 443.16796875 C-27.08992416 431.14081945 -35.21864704 418.20176008 -42.6875 404.9375 C-60.72510462 413.45833163 -77.13274705 424.14475458 -84.40576172 443.88720703 C-85.54509786 447.30846838 -86.56491415 450.76122686 -87.57421875 454.22265625 C-90.31518734 463.36883566 -93.6650888 470.81015766 -102.25 475.75 C-109.49748131 479.63123349 -117.43783401 480.17009484 -125.44921875 478.2890625 C-133.13237163 475.53583467 -138.29414081 470.97717459 -142.0625 463.75 C-146.04597357 455.2461499 -145.09962215 446.83259623 -142.6875 438 C-142.46819824 437.18660156 -142.24889648 436.37320312 -142.02294922 435.53515625 C-133.18681477 404.39544109 -111.75537746 377.06359001 -83.6875 360.9375 C-66.72493514 351.9375 -66.72493514 351.9375 -61.6875 351.9375 C-61.86925781 351.31488281 -62.05101563 350.69226563 -62.23828125 350.05078125 C-64.09787569 343.21319553 -65.34494026 336.38102641 -66.375 329.375 C-66.50624268 328.51366455 -66.63748535 327.6523291 -66.77270508 326.76489258 C-67.41863324 322.1844778 -67.75273139 317.73840041 -67.72192383 313.10961914 C-67.71695389 312.13601944 -67.71198395 311.16241974 -67.7068634 310.15931702 C-67.70047348 309.4261174 -67.69408356 308.69291779 -67.6875 307.9375 C-68.93538551 307.94749275 -68.93538551 307.94749275 -70.20848083 307.95768738 C-78.07878303 308.01799505 -85.94900672 308.06357385 -93.81948757 308.09293652 C-97.86502949 308.10854005 -101.91037921 308.12968013 -105.95581055 308.16381836 C-109.86563549 308.19660281 -113.77527647 308.21439289 -117.68522835 308.22213173 C-119.17105057 308.22764121 -120.65686361 308.23839927 -122.14260674 308.25469017 C-133.69358115 308.37621682 -143.4740593 307.70894065 -152.28125 299.44140625 C-158.44897178 292.89576034 -160.30456663 285.59671449 -160.04296875 276.71484375 C-159.20333291 270.15461208 -156.52370773 263.51917048 -151.6875 258.9375 C-144.95267383 254.41063167 -140.04325576 251.80943672 -131.8293457 251.82397461 C-131.13640411 251.82382858 -130.44346252 251.82368256 -129.72952271 251.8235321 C-127.44074363 251.82422837 -125.1520461 251.8320074 -122.86328125 251.83984375 C-121.27573186 251.84170894 -119.68818189 251.84313237 -118.10063171 251.84413147 C-113.9232728 251.84794866 -109.74594869 251.85777214 -105.56860352 251.86883545 C-100.5559028 251.88086574 -95.54319045 251.88545561 -90.53047943 251.89128876 C-82.91612876 251.90098431 -75.30185443 251.92014644 -67.6875 251.9375 C-68.0175 241.7075 -68.3475 231.4775 -68.6875 220.9375 C-72.27625 219.205 -72.27625 219.205 -75.9375 217.4375 C-106.53030431 202.24186466 -129.19612997 176.9199357 -140.265625 144.47265625 C-144.50236575 131.39338503 -146.93901277 120.83124509 -140.6875 107.9375 C-136.92677225 101.68529012 -131.47735244 98.35456712 -124.6875 95.9375 C-116.48851001 94.01645028 -108.81557237 94.91889292 -101.5 99.125 C-94.71184148 103.74960202 -91.09475355 109.11392596 -88.6875 116.9375 C-82.97092898 135.26780925 -75.11238944 150.84921724 -58.6875 161.9375 C-57.6975 162.2675 -56.7075 162.5975 -55.6875 162.9375 C-55.419375 162.35484375 -55.15125 161.7721875 -54.875 161.171875 C-48.21759012 148.64543272 -34.63739782 140.59284055 -21.6875 135.9375 C-15.08787157 133.9315843 -8.59256904 132.76097944 -1.6875 132.9375 C-1.71585938 131.78378906 -1.74421875 130.63007813 -1.7734375 129.44140625 C-1.77153593 125.12199805 -1.16467448 121.09899945 -0.3125 116.875 C-0.18617188 116.20662109 -0.05984375 115.53824219 0.0703125 114.84960938 C0.92350899 110.45991341 2.03279215 106.21617538 3.3125 101.9375 C2.466875 101.1640625 1.62125 100.390625 0.75 99.59375 C-2.20259687 96.88749354 -5.14078935 94.16612261 -8.07226562 91.43701172 C-9.38005142 90.22292158 -10.69652985 89.01819931 -12.015625 87.81640625 C-26.96133073 73.69089169 -40.39842329 49.43513135 -41.92578125 28.703125 C-42.11905633 19.54798943 -40.79956095 13.8278815 -35.9375 6.1875 C-26.81339931 -2.93660069 -11.81714544 -5.51105407 0 0 Z " fill="#FE6D7F" transform="translate(166.6875,2.0625)"/>
<path d="M0 0 C8.9615053 5.44689117 12.21363333 13.10462567 15.19921875 22.82421875 C19.18829572 35.70035329 25.63479779 46.54337717 36.3125 54.9375 C38.65450583 56.14863528 38.65450583 56.14863528 41.3125 55.9375 C43.92668404 54.80712098 46.28052921 53.63566243 48.75 52.25 C68.89298464 41.55187322 93.39395166 39.60659593 115.3125 45.9375 C122.44305686 48.26111931 129.02104759 51.01299784 135.3125 55.1171875 C138.1062453 56.2630596 139.47889217 55.94269422 142.3125 54.9375 C153.42198212 46.25710079 160.18344256 34.20347142 164.23046875 20.92578125 C167.17502375 11.34696357 170.67481794 4.97125978 179.48046875 -0.15234375 C186.26660728 -3.52370895 196.72560331 -3.27338808 204.03515625 -1.34375 C208.17890566 0.63630752 211.3090978 3.5169586 214.3125 6.9375 C215.034375 7.741875 215.75625 8.54625 216.5 9.375 C221.32114531 16.19110199 221.06182261 23.92369183 220.3125 31.9375 C215.42195056 58.74209244 198.4414814 83.38985689 177.4453125 100.23828125 C174.88969185 102.83002217 174.88969185 102.83002217 175.6640625 106.4609375 C176.05893316 107.75420516 176.48464897 109.03837676 176.9375 110.3125 C179.41199145 117.96941694 180.45312724 124.92174734 180.3125 132.9375 C181.38564453 132.97617187 181.38564453 132.97617187 182.48046875 133.015625 C201.71677068 134.11057621 217.09923823 142.2602611 230.3125 155.9375 C234.3125 160.57189065 234.3125 160.57189065 234.3125 162.9375 C248.87769023 155.49995605 258.75663817 142.13268395 264.3125 126.9375 C265.15663192 124.21759683 265.94931452 121.48295198 266.75 118.75 C269.24950515 110.28307437 272.80480663 103.88159076 280.3125 98.9375 C288.01905308 94.93602051 295.40712621 94.10618507 303.828125 96.09375 C312.12187265 98.91049448 317.33576675 104.26712299 321.3125 111.9375 C326.56932584 125.31851122 320.9473182 139.82662495 315.84375 152.4921875 C310.39136683 164.76004963 303.9625478 175.66985214 295.3125 185.9375 C294.57128906 186.83082031 293.83007812 187.72414062 293.06640625 188.64453125 C280.49575867 203.23186026 264.45579153 212.71571733 247.3125 220.9375 C246.9825 231.1675 246.6525 241.3975 246.3125 251.9375 C251.32179688 251.87949219 256.33109375 251.82148438 261.4921875 251.76171875 C264.68232443 251.73614452 267.8723334 251.71207333 271.0625 251.69335938 C276.11648087 251.6635706 281.17000506 251.62848709 286.22363281 251.56030273 C290.30207417 251.50562561 294.38002524 251.47600516 298.45880508 251.46311378 C300.00804478 251.45393739 301.55726029 251.43601897 303.10628891 251.40884972 C313.7162551 251.23030516 321.65750701 252.2878391 330.125 259.25 C336.96101073 267.64852746 339.07949512 274.09631902 338.3125 284.9375 C337.07488976 292.548803 332.99648297 297.87266517 327.3125 302.9375 C321.01309681 307.14096206 315.00851766 308.06495087 307.50268555 308.05102539 C306.83871262 308.05117142 306.17473969 308.05131744 305.49064636 308.0514679 C303.31013651 308.05077483 301.12971356 308.04301099 298.94921875 308.03515625 C297.4317886 308.03328992 295.91435785 308.03186703 294.39692688 308.03086853 C290.41358765 308.02706032 286.4302852 308.01724459 282.44696045 308.00616455 C278.37805682 307.99591389 274.30914721 307.99136309 270.24023438 307.98632812 C262.26430609 307.97562074 254.28840763 307.95856478 246.3125 307.9375 C246.32183563 308.65597107 246.33117126 309.37444214 246.34078979 310.11468506 C246.37996918 315.30625254 246.31443993 320.31118988 245.5078125 325.453125 C245.33636719 326.55914062 245.16492188 327.66515625 244.98828125 328.8046875 C244.80652344 329.92101562 244.62476563 331.03734375 244.4375 332.1875 C244.17646484 333.88519531 244.17646484 333.88519531 243.91015625 335.6171875 C243.02939625 341.18880999 242.03646059 346.56371293 240.3125 351.9375 C241.27349609 352.06318359 241.27349609 352.06318359 242.25390625 352.19140625 C268.17285365 358.51390811 292.59398747 381.03794302 306.11328125 403.16796875 C315.48645116 418.99996163 326.02267319 439.23458478 322.953125 458.15234375 C320.93985459 465.8925523 315.62068076 472.19913021 308.921875 476.45703125 C300.88048038 480.12753879 292.20341012 480.29076273 283.9375 477.25 C276.07824537 473.62845547 271.66161838 468.80252638 268.3125 460.9375 C267.46613287 458.33833383 266.65248631 455.74424173 265.875 453.125 C260.50287532 435.06869206 250.16173873 419.81434868 233.45727539 410.46533203 C227.26620668 406.99254162 227.26620668 406.99254162 220.3125 405.9375 C219.80203125 406.89527344 219.2915625 407.85304688 218.765625 408.83984375 C207.86543426 428.9383462 193.989974 446.36998759 178.3125 462.9375 C177.67441406 463.618125 177.03632813 464.29875 176.37890625 465 C171.43001094 470.12691313 165.8841292 474.51082602 160.3125 478.9375 C159.36890625 479.70964844 158.4253125 480.48179687 157.453125 481.27734375 C132.81045699 500.97232582 109.21507954 512.00235689 77.3125 509.9375 C40.67420841 505.78724285 4.22599926 470.67405744 -17.7421875 443.16796875 C-27.08992416 431.14081945 -35.21864704 418.20176008 -42.6875 404.9375 C-60.72510462 413.45833163 -77.13274705 424.14475458 -84.40576172 443.88720703 C-85.54509786 447.30846838 -86.56491415 450.76122686 -87.57421875 454.22265625 C-90.31518734 463.36883566 -93.6650888 470.81015766 -102.25 475.75 C-109.49748131 479.63123349 -117.43783401 480.17009484 -125.44921875 478.2890625 C-133.13237163 475.53583467 -138.29414081 470.97717459 -142.0625 463.75 C-146.04597357 455.2461499 -145.09962215 446.83259623 -142.6875 438 C-142.46819824 437.18660156 -142.24889648 436.37320312 -142.02294922 435.53515625 C-133.18681477 404.39544109 -111.75537746 377.06359001 -83.6875 360.9375 C-66.72493514 351.9375 -66.72493514 351.9375 -61.6875 351.9375 C-61.86925781 351.31488281 -62.05101563 350.69226563 -62.23828125 350.05078125 C-64.09787569 343.21319553 -65.34494026 336.38102641 -66.375 329.375 C-66.50624268 328.51366455 -66.63748535 327.6523291 -66.77270508 326.76489258 C-67.41863324 322.1844778 -67.75273139 317.73840041 -67.72192383 313.10961914 C-67.71695389 312.13601944 -67.71198395 311.16241974 -67.7068634 310.15931702 C-67.70047348 309.4261174 -67.69408356 308.69291779 -67.6875 307.9375 C-68.93538551 307.94749275 -68.93538551 307.94749275 -70.20848083 307.95768738 C-78.07878303 308.01799505 -85.94900672 308.06357385 -93.81948757 308.09293652 C-97.86502949 308.10854005 -101.91037921 308.12968013 -105.95581055 308.16381836 C-109.86563549 308.19660281 -113.77527647 308.21439289 -117.68522835 308.22213173 C-119.17105057 308.22764121 -120.65686361 308.23839927 -122.14260674 308.25469017 C-133.69358115 308.37621682 -143.4740593 307.70894065 -152.28125 299.44140625 C-158.44897178 292.89576034 -160.30456663 285.59671449 -160.04296875 276.71484375 C-159.20333291 270.15461208 -156.52370773 263.51917048 -151.6875 258.9375 C-144.95267383 254.41063167 -140.04325576 251.80943672 -131.8293457 251.82397461 C-131.13640411 251.82382858 -130.44346252 251.82368256 -129.72952271 251.8235321 C-127.44074363 251.82422837 -125.1520461 251.8320074 -122.86328125 251.83984375 C-121.27573186 251.84170894 -119.68818189 251.84313237 -118.10063171 251.84413147 C-113.9232728 251.84794866 -109.74594869 251.85777214 -105.56860352 251.86883545 C-100.5559028 251.88086574 -95.54319045 251.88545561 -90.53047943 251.89128876 C-82.91612876 251.90098431 -75.30185443 251.92014644 -67.6875 251.9375 C-68.0175 241.7075 -68.3475 231.4775 -68.6875 220.9375 C-72.27625 219.205 -72.27625 219.205 -75.9375 217.4375 C-106.53030431 202.24186466 -129.19612997 176.9199357 -140.265625 144.47265625 C-144.50236575 131.39338503 -146.93901277 120.83124509 -140.6875 107.9375 C-136.92677225 101.68529012 -131.47735244 98.35456712 -124.6875 95.9375 C-116.48851001 94.01645028 -108.81557237 94.91889292 -101.5 99.125 C-94.71184148 103.74960202 -91.09475355 109.11392596 -88.6875 116.9375 C-82.97092898 135.26780925 -75.11238944 150.84921724 -58.6875 161.9375 C-57.6975 162.2675 -56.7075 162.5975 -55.6875 162.9375 C-55.419375 162.35484375 -55.15125 161.7721875 -54.875 161.171875 C-48.21759012 148.64543272 -34.63739782 140.59284055 -21.6875 135.9375 C-15.08787157 133.9315843 -8.59256904 132.76097944 -1.6875 132.9375 C-1.71585938 131.78378906 -1.74421875 130.63007813 -1.7734375 129.44140625 C-1.77153593 125.12199805 -1.16467448 121.09899945 -0.3125 116.875 C-0.18617188 116.20662109 -0.05984375 115.53824219 0.0703125 114.84960938 C0.92350899 110.45991341 2.03279215 106.21617538 3.3125 101.9375 C2.466875 101.1640625 1.62125 100.390625 0.75 99.59375 C-2.20259687 96.88749354 -5.14078935 94.16612261 -8.07226562 91.43701172 C-9.38005142 90.22292158 -10.69652985 89.01819931 -12.015625 87.81640625 C-26.96133073 73.69089169 -40.39842329 49.43513135 -41.92578125 28.703125 C-42.11905633 19.54798943 -40.79956095 13.8278815 -35.9375 6.1875 C-26.81339931 -2.93660069 -11.81714544 -5.51105407 0 0 Z M40.3125 75.9375 C39.44238281 76.71609375 38.57226562 77.4946875 37.67578125 78.296875 C24.97841377 90.28402138 15.52860889 106.21677316 14.3125 123.9375 C14.28776447 125.69124922 14.28038697 127.44531656 14.2890625 129.19921875 C14.29413818 130.53472778 14.29413818 130.53472778 14.29931641 131.8972168 C14.30366699 132.57051025 14.30801758 133.24380371 14.3125 133.9375 C15.4458931 133.94336624 16.57928619 133.94923248 17.74702454 133.95527649 C28.41543563 134.01242869 39.08364141 134.08515078 49.75184345 134.17321491 C55.2368098 134.21798927 60.72170066 134.25722974 66.20678711 134.28393555 C71.49778265 134.3098981 76.78848876 134.35025026 82.07930565 134.40068626 C84.1003275 134.41740278 86.12139946 134.42888716 88.14248085 134.43511391 C90.96810045 134.44470307 93.79297151 134.47269965 96.6184082 134.50512695 C97.87860527 134.50297432 97.87860527 134.50297432 99.16426086 134.5007782 C104.85354071 134.59344112 104.85354071 134.59344112 107.05487347 136.24367046 C108.3125 137.9375 108.3125 137.9375 108.25 141.4375 C107.20194494 145.35023888 106.69280002 145.96660197 103.3125 147.9375 C101.07065487 148.31108761 101.07065487 148.31108761 98.57762146 148.30931091 C97.628806 148.31606842 96.67999054 148.32282593 95.7024231 148.32978821 C94.6681015 148.32206894 93.63377991 148.31434967 92.56811523 148.30639648 C90.92588234 148.3120462 90.92588234 148.3120462 89.25047302 148.31781006 C86.87147821 148.32424826 84.49245768 148.32390715 82.11346245 148.31762505 C78.34199219 148.30852352 74.57102009 148.31873054 70.79957581 148.33424377 C61.42662986 148.36930466 52.05372901 148.37667846 42.6807251 148.37414551 C34.77008362 148.37227882 26.85972331 148.38627887 18.94914436 148.42262459 C15.2450066 148.43341485 11.54138595 148.42133614 7.83726501 148.40879822 C5.54572041 148.41770913 3.25417994 148.42778576 0.96264648 148.43920898 C-0.05750549 148.42946548 -1.07765747 148.41972198 -2.12872314 148.40968323 C-15.07559349 148.53770545 -28.02358132 154.34708257 -37.5 163.1875 C-48.73764057 175.38679685 -52.9925535 188.97284827 -52.97802734 205.20751953 C-52.98474457 206.30020645 -52.99146179 207.39289337 -52.99838257 208.51869202 C-53.01731766 212.11927912 -53.02128698 215.71967872 -53.0234375 219.3203125 C-53.02987709 221.8563545 -53.03660629 224.39239578 -53.04360962 226.92843628 C-53.05557746 232.25276704 -53.05937806 237.57702957 -53.05810547 242.90136719 C-53.05704715 248.3028565 -53.07098128 253.70405384 -53.09912109 259.10546875 C-53.52962092 313.32255908 -53.52962092 313.32255908 -41.6875 365.9375 C-41.38859863 366.82550293 -41.08969727 367.71350586 -40.78173828 368.62841797 C-34.36074611 387.46772708 -25.476625 405.85050662 -13.6875 421.9375 C-12.98238281 422.92492187 -12.27726562 423.91234375 -11.55078125 424.9296875 C-7.04789185 431.10642584 -2.22412754 436.82992442 2.984375 442.421875 C4.95286398 444.54890001 6.82765946 446.71652538 8.6875 448.9375 C27.08863068 470.00421503 57.00897219 493.00722801 85.49609375 495.3203125 C108.976561 496.58597387 128.5915416 484.10418367 146.3125 469.9375 C147.18777344 469.25429688 148.06304687 468.57109375 148.96484375 467.8671875 C159.80083311 459.24294927 170.65477762 449.79400901 179.3125 438.9375 C180.13878906 437.92558594 180.96507812 436.91367187 181.81640625 435.87109375 C205.21583692 406.93404596 221.95953896 372.75908653 228.3125 335.9375 C228.43055622 335.2802144 228.54861244 334.62292879 228.67024612 333.94572544 C231.44595228 318.16418093 231.77033475 302.6488349 231.74609375 286.65625 C231.74950754 284.66027781 231.75293279 282.66430544 231.75744683 280.66833544 C231.77134913 274.42663138 231.77004629 268.18506466 231.75854492 261.94335938 C231.74702066 255.54862736 231.76124381 249.15431268 231.7879414 242.75963545 C231.81020148 237.21592539 231.81671441 231.67234542 231.81086498 226.12859392 C231.80752553 222.8402864 231.8114678 219.55230325 231.82711601 216.26402283 C231.8421056 212.6021356 231.83129295 208.94115696 231.81420898 205.27929688 C231.82387695 204.2182373 231.83354492 203.15717773 231.84350586 202.06396484 C231.69308862 186.55365966 225.46715879 173.55947354 215 162.33203125 C203.83624747 152.38525756 191.24882102 148.48724683 176.54296875 148.56640625 C174.08398287 148.54904034 171.62499852 148.53145582 169.16601562 148.51367188 C165.31678602 148.50356244 161.46765061 148.50001424 157.6184082 148.50170898 C153.88464431 148.49815099 150.1516043 148.47087192 146.41796875 148.44140625 C145.26378952 148.44958878 144.10961029 148.4577713 142.92045593 148.46620178 C141.31277092 148.45114845 141.31277092 148.45114845 139.67260742 148.43579102 C138.73156662 148.43595718 137.79052582 148.43612335 136.82096863 148.43629456 C133.54430759 147.78474936 132.34900347 146.53709046 130.3125 143.9375 C129.87279752 140.85958265 129.65888528 138.93225896 131.39770508 136.28588867 C134.31104375 134.23433066 136.85879553 134.49777968 140.38671875 134.42578125 C141.0705513 134.40783005 141.75438385 134.38987885 142.4589386 134.37138367 C144.63923 134.31727925 146.81930256 134.2833866 149 134.25 C150.47984817 134.2168268 151.95966745 134.18233713 153.43945312 134.14648438 C157.06359169 134.06155476 160.68780652 133.99474365 164.3125 133.9375 C164.58898362 115.0214122 159.24017615 98.10623306 146.3125 83.9375 C145.12914062 82.59945312 145.12914062 82.59945312 143.921875 81.234375 C130.5208453 66.89292216 111.65583795 58.31084404 92.01196289 57.6027832 C73.40649743 57.2803484 54.31558521 63.27483232 40.3125 75.9375 Z " fill="#010000" transform="translate(166.6875,2.0625)"/>
<path d="M0 0 C0.85529297 -0.00773438 1.71058594 -0.01546875 2.59179688 -0.0234375 C16.35079699 0.01854267 28.82327641 5.12200998 39.0625 14.25 C39.66578125 14.76046875 40.2690625 15.2709375 40.890625 15.796875 C46.6256058 21.01519086 50.2215065 27.59911396 54.0625 34.25 C54.58344238 35.14686523 55.10438477 36.04373047 55.64111328 36.96777344 C59.13360008 42.9832115 62.60691135 49.00950358 66.07046509 55.04164124 C69.55868246 61.11636749 73.06047459 67.18322756 76.5625 73.25 C77.80472005 75.40362706 79.04690743 77.55727296 80.2890625 79.7109375 C83.5208198 85.31298732 86.75747623 90.91219418 89.99487305 96.51098633 C91.89000004 99.79274514 93.77951949 103.07767638 95.66796875 106.36328125 C97.71062733 109.91620033 99.77095826 113.45659654 101.86328125 116.98046875 C110.65148165 131.89703194 114.67068993 146.14569914 111 163.375 C106.70695919 178.07117691 98.3349247 191.21922129 85.0625 199.25 C74.09827289 205.02933658 64.06791237 207.7042797 51.69067383 207.65405273 C50.49411163 207.66091599 49.29754944 207.66777924 48.06472778 207.67485046 C44.81016992 207.68992335 41.5559751 207.69163715 38.30139756 207.68590808 C35.56842932 207.68279518 32.83551168 207.68893234 30.10255069 207.69494683 C23.64376294 207.70895057 17.18510754 207.70746767 10.72631836 207.69604492 C4.10294083 207.68458858 -2.52003059 207.69860667 -9.14335459 207.7254414 C-14.86351721 207.74773388 -20.58355365 207.75420496 -26.30375654 207.74836498 C-29.70517378 207.74502378 -33.10633142 207.74721708 -36.50771141 207.76461601 C-59.07007286 207.85374924 -76.46385033 206.76493519 -93.6171875 190.66015625 C-104.79203247 179.05261526 -110.35279635 164.19653376 -110.30541992 148.24047852 C-110.06061237 136.83198255 -106.21300034 126.81550853 -99.72265625 117.5078125 C-97.9375 116.25 -97.9375 116.25 -94.58984375 116.5625 C-91.02038961 116.64975683 -91.02038961 116.64975683 -89.43408203 114.76171875 C-87.99486406 112.64476836 -86.73038504 110.49464697 -85.5 108.25 C-84.83194336 107.1053125 -84.83194336 107.1053125 -84.15039062 105.9375 C-83.05547289 104.05377057 -81.98654076 102.15953985 -80.9375 100.25 C-81.42081787 99.82734863 -81.90413574 99.40469727 -82.40209961 98.96923828 C-84.47134713 96.65223382 -84.54108391 94.63485771 -84.41455078 91.59667969 C-83.41252334 86.66756618 -80.50587293 82.59072776 -77.875 78.375 C-76.58741335 76.24417098 -75.3009961 74.11263498 -74.015625 71.98046875 C-73.00918945 70.32797119 -73.00918945 70.32797119 -71.98242188 68.64208984 C-68.60660744 63.0423327 -65.37375474 57.36155618 -62.125 51.6875 C-60.86692969 49.50851132 -59.60784813 47.33010613 -58.34765625 45.15234375 C-56.32198443 41.65153307 -54.30757547 38.1450074 -52.30859375 34.62890625 C-42.98846542 18.40964093 -31.53141797 7.33925207 -13.72265625 1.12890625 C-9.06941019 0.04843116 -4.75764361 -0.0428295 0 0 Z " fill="#EFD15D" transform="translate(254.9375,180.75)"/>
<path d="M0 0 C1.55654997 0.00560506 3.11310529 0.00987085 4.66966248 0.01286316 C8.73856582 0.02424047 12.8071407 0.05364499 16.87591553 0.0869751 C21.03897663 0.11783069 25.20209154 0.13140138 29.36523438 0.14648438 C37.51317047 0.17852269 45.66084109 0.22963122 53.80859375 0.29296875 C53.52693863 1.10338623 53.24528351 1.91380371 52.95509338 2.7487793 C51.8882285 5.82163442 50.82319031 8.89511103 49.7592926 11.96899414 C49.30274215 13.28694676 48.84551203 14.60466418 48.38752747 15.92211914 C41.28897396 35.03813669 41.28897396 35.03813669 36.40698242 54.74536133 C35.7036828 57.73962145 34.51541506 59.90400749 32.95703125 62.5546875 C32.36011475 63.57884766 31.76319824 64.60300781 31.14819336 65.65820312 C30.17571655 67.30272461 30.17571655 67.30272461 29.18359375 68.98046875 C28.16668014 70.72016267 27.14977824 72.45986356 26.1335907 74.19998169 C25.07399945 76.01260976 24.01145532 77.82348506 22.94873047 79.63427734 C20.8442965 83.22541872 18.76237238 86.82921482 16.6875 90.4375 C16.35484131 91.01586105 16.02218262 91.59422211 15.67944336 92.19010925 C14.70144842 93.89094069 13.72376823 95.59195309 12.74609375 97.29296875 C11.54794021 99.37691488 10.34876862 101.46027612 9.1484375 103.54296875 C8.59325439 104.50775146 8.03807129 105.47253418 7.46606445 106.46655273 C5.36158473 110.05523469 3.16165698 113.58176929 0.93212891 117.09399414 C-0.93637011 120.75100645 -0.82799147 123.26126238 -0.19140625 127.29296875 C1.26940924 129.00470694 1.26940924 129.00470694 2.80859375 130.29296875 C1.54020552 132.37782542 0.26898617 134.46086451 -1.00390625 136.54296875 C-1.53854492 137.42275391 -1.53854492 137.42275391 -2.08398438 138.3203125 C-6.37051786 145.32033966 -6.37051786 145.32033966 -8.19140625 147.29296875 C-9.32578125 147.27234375 -10.46015625 147.25171875 -11.62890625 147.23046875 C-15.20501793 146.91576278 -15.20501793 146.91576278 -17.31640625 149.10546875 C-25.29958341 162.67686993 -29.15105944 177.77946549 -25.31640625 193.375 C-20.13001022 209.94075836 -11.70428771 221.69991513 3.234375 230.53125 C11.93645761 234.82047323 21.21124006 236.37561486 30.80859375 237.29296875 C30.95369385 237.8849707 31.09879395 238.47697266 31.24829102 239.08691406 C34.503564 252.25003582 38.16832808 265.09893579 42.89208984 277.81152344 C43.819164 280.32158782 44.71541344 282.84125679 45.609375 285.36328125 C52.97456136 305.79848039 62.83639216 324.76786211 74.89746094 342.81616211 C75.80859375 344.29296875 75.80859375 344.29296875 75.80859375 345.29296875 C52.66939564 344.72984667 30.33465354 325.3761011 14.06640625 310.36328125 C12.04384121 308.50868009 9.97375391 306.74261714 7.87109375 304.98046875 C-1.71232182 296.59256981 -9.7373133 286.57067211 -17.19140625 276.29296875 C-17.58650391 275.75430176 -17.98160156 275.21563477 -18.38867188 274.66064453 C-32.35408683 255.40962858 -41.91792552 233.82922642 -49.19140625 211.29296875 C-49.4538916 210.52033691 -49.71637695 209.74770508 -49.98681641 208.95166016 C-61.03553988 176.31210686 -58.78535178 140.53975238 -58.64093018 106.6270752 C-58.62403446 101.90367112 -58.63226462 97.18038613 -58.64134735 92.45697337 C-58.65217671 86.54784205 -58.64580442 80.63882522 -58.63179207 74.72969627 C-58.62730877 72.24717797 -58.62691313 69.7646485 -58.63085747 67.28212929 C-58.6337887 63.82237705 -58.61718076 60.36323872 -58.59545898 56.90356445 C-58.59996063 55.90137375 -58.60446228 54.89918304 -58.60910034 53.86662292 C-58.4456677 38.08951552 -52.93740094 25.29920976 -42.1015625 13.875 C-37.00825325 9.35596991 -31.37293813 6.14494864 -25.19140625 3.29296875 C-24.32511093 2.89316048 -24.32511093 2.89316048 -23.4413147 2.48527527 C-15.84904177 -0.52295374 -8.02312162 -0.08537832 0 0 Z " fill="#F7465D" transform="translate(172.19140625,150.70703125)"/>
<path d="M0 0 C9.92031179 3.80380053 15.29016957 13.72045489 20.18017578 22.53222656 C22.32990487 26.37700821 24.55116914 30.18001483 26.76098633 33.99047852 C28.70906889 37.35326674 30.64872244 40.72078451 32.5859375 44.08984375 C35.78143212 49.64705518 38.98217619 55.20120353 42.18676758 60.75317383 C43.42695847 62.90230631 44.66637906 65.05188349 45.9050293 67.2019043 C49.10346991 72.75237352 52.31347264 78.29565974 55.54296875 83.828125 C66.87261498 103.27164585 66.87261498 103.27164585 71.421875 112.2890625 C71.73761475 112.91055176 72.05335449 113.53204102 72.37866211 114.17236328 C77.34281599 124.30078091 76.50872696 135.32626816 72.93359375 145.80078125 C68.11118541 156.84477556 60.03295381 164.81988638 49.04980469 169.62597656 C39.79208742 173.07070104 30.45453387 172.73859468 20.6875 172.7109375 C18.68739304 172.71940381 16.68729076 172.72904843 14.68719482 172.73980713 C10.51833633 172.75610876 6.35001001 172.75356932 2.18115234 172.73828125 C-3.14422058 172.72094041 -8.46763349 172.75828259 -13.79272079 172.81054306 C-17.91422472 172.8437011 -22.03525938 172.84421341 -26.15686798 172.83539581 C-28.11996951 172.83575408 -30.08310192 172.84694562 -32.04607391 172.86949921 C-50.51529982 173.05370188 -50.51529982 173.05370188 -56.95947266 166.73814392 C-57.45237793 166.15682205 -57.9452832 165.57550018 -58.453125 164.9765625 C-59.66742188 163.65591797 -59.66742188 163.65591797 -60.90625 162.30859375 C-66.74732457 154.11839136 -71.89339103 145.23835192 -72.453125 134.9765625 C-72.50339844 134.16960937 -72.55367187 133.36265625 -72.60546875 132.53125 C-73.16835369 116.72544075 -66.14498971 105.20452516 -58.453125 91.9765625 C-57.18559049 89.76857776 -55.91868563 87.56023146 -54.65234375 85.3515625 C-53.37897862 83.14243634 -52.10425958 80.93409 -50.828125 78.7265625 C-50.21219482 77.66018555 -49.59626465 76.59380859 -48.96166992 75.49511719 C-48.38908447 74.51446289 -47.81649902 73.53380859 -47.2265625 72.5234375 C-46.71528809 71.64526367 -46.20401367 70.76708984 -45.67724609 69.86230469 C-45.27328613 69.24000977 -44.86932617 68.61771484 -44.453125 67.9765625 C-44.123125 67.9765625 -43.793125 67.9765625 -43.453125 67.9765625 C-43.23398438 68.83378906 -43.01484375 69.69101562 -42.7890625 70.57421875 C-40.42928328 79.08285357 -37.90349402 84.16196048 -31.265625 89.8515625 C-24.91674901 92.3911129 -18.61468108 92.75519553 -12.140625 90.4765625 C-5.03002524 87.18085595 -1.77556871 82.47039648 0.89421082 75.21121216 C1.94580443 71.61067246 1.99526928 68.14782957 1.98046875 64.41796875 C1.9857106 63.62937973 1.99095245 62.84079071 1.99635315 62.02830505 C2.00273356 60.37199065 2.00148841 58.7156307 1.99291992 57.05932617 C1.98440694 54.54848262 2.01322895 52.03991671 2.04492188 49.52929688 C2.20898397 36.30751428 2.20898397 36.30751428 -4.1953125 25.1237793 C-7.29552875 22.2258093 -10.35028776 20.21984651 -14.453125 18.9765625 C-13.89723103 14.83329948 -12.57661557 12.28897878 -10.140625 8.9140625 C-9.54636719 8.07746094 -8.95210938 7.24085938 -8.33984375 6.37890625 C-3.30526754 -0.03157899 -3.30526754 -0.03157899 0 0 Z " fill="#F4E387" transform="translate(276.453125,201.0234375)"/>
<path d="M0 0 C0.85529297 -0.00773438 1.71058594 -0.01546875 2.59179688 -0.0234375 C16.35079699 0.01854267 28.82327641 5.12200998 39.0625 14.25 C39.66578125 14.76046875 40.2690625 15.2709375 40.890625 15.796875 C46.6256058 21.01519086 50.2215065 27.59911396 54.0625 34.25 C54.58344238 35.14686523 55.10438477 36.04373047 55.64111328 36.96777344 C59.13360008 42.9832115 62.60691135 49.00950358 66.07046509 55.04164124 C69.55868246 61.11636749 73.06047459 67.18322756 76.5625 73.25 C77.80472005 75.40362706 79.04690743 77.55727296 80.2890625 79.7109375 C83.5208198 85.31298732 86.75747623 90.91219418 89.99487305 96.51098633 C91.89000004 99.79274514 93.77951949 103.07767638 95.66796875 106.36328125 C97.71062733 109.91620033 99.77095826 113.45659654 101.86328125 116.98046875 C110.65148165 131.89703194 114.67068993 146.14569914 111 163.375 C106.70695919 178.07117691 98.3349247 191.21922129 85.0625 199.25 C74.09827289 205.02933658 64.06791237 207.7042797 51.69067383 207.65405273 C50.49411163 207.66091599 49.29754944 207.66777924 48.06472778 207.67485046 C44.81016992 207.68992335 41.5559751 207.69163715 38.30139756 207.68590808 C35.56842932 207.68279518 32.83551168 207.68893234 30.10255069 207.69494683 C23.64376294 207.70895057 17.18510754 207.70746767 10.72631836 207.69604492 C4.10294083 207.68458858 -2.52003059 207.69860667 -9.14335459 207.7254414 C-14.86351721 207.74773388 -20.58355365 207.75420496 -26.30375654 207.74836498 C-29.70517378 207.74502378 -33.10633142 207.74721708 -36.50771141 207.76461601 C-59.07007286 207.85374924 -76.46385033 206.76493519 -93.6171875 190.66015625 C-104.79203247 179.05261526 -110.35279635 164.19653376 -110.30541992 148.24047852 C-110.06945687 137.24415318 -106.65983602 126.07637368 -99.5 117.53515625 C-97.9375 116.25 -97.9375 116.25 -94.5 115.8125 C-90.9375 116.25 -90.9375 116.25 -88.5 117.875 C-86.4635075 120.9704686 -86.62064487 122.57536069 -86.9375 126.25 C-88.21484375 129.50390625 -88.21484375 129.50390625 -89.875 132.8125 C-94.78619933 142.66972987 -95.32295387 152.21701292 -92.375 162.875 C-88.59431048 173.92624629 -81.86954972 182.07389678 -71.50390625 187.53125 C-66.22092538 189.96020672 -61.68277858 191.36745369 -55.83644104 191.40390015 C-54.80637436 191.41250061 -53.77630768 191.42110107 -52.71502686 191.42996216 C-51.02799652 191.43635208 -51.02799652 191.43635208 -49.30688477 191.44287109 C-47.52316719 191.45513733 -47.52316719 191.45513733 -45.70341492 191.46765137 C-41.76192562 191.49249249 -37.82044393 191.50918076 -33.87890625 191.5234375 C-32.5171451 191.528801 -31.15538401 191.53417851 -29.79362297 191.53956985 C-24.12234318 191.56119681 -18.45106616 191.5799272 -12.77975559 191.59119225 C-4.68124209 191.60738906 3.41678845 191.64046392 11.51511997 191.69759309 C17.22406124 191.73647618 22.93287439 191.75584691 28.64194447 191.76111281 C32.04350844 191.7647435 35.44455668 191.77651598 38.84597588 191.80921555 C42.65346206 191.84102137 46.45974849 191.8408793 50.26733398 191.83349609 C51.3738028 191.84990143 52.48027161 191.86630676 53.62026978 191.88320923 C65.50158802 191.78956672 76.58441635 187.72808365 85.0625 179.25 C93.1070348 170.1819061 96.89265294 159.17680768 96.37109375 147.0703125 C94.57870648 130.68925419 82.99040073 115.58387696 74.8359375 101.69140625 C71.068196 95.27022938 67.3417914 88.82577036 63.625 82.375 C62.69844604 80.76902954 62.69844604 80.76902954 61.75317383 79.13061523 C58.85821424 74.11090777 55.96824971 69.08846018 53.09158325 64.0582428 C38.66877735 35.68675638 38.66877735 35.68675638 14.0625 17.25 C3.56661761 14.44275377 -9.37127096 15.03486224 -18.9375 20.25 C-29.50792371 26.83094121 -35.49610602 36.7378171 -41.44732666 47.41171265 C-42.46330022 49.23377038 -43.48803439 51.05064971 -44.51513672 52.86645508 C-45.9446697 55.39453419 -47.37134065 57.92419243 -48.79589844 60.45507812 C-52.18477506 66.46835937 -55.62100502 72.4542275 -59.0625 78.4375 C-59.66513672 79.49251709 -60.26777344 80.54753418 -60.88867188 81.63452148 C-69.77186642 97.08436642 -69.77186642 97.08436642 -72.9375 100.25 C-76.42975533 100.51356644 -79.10989929 100.5895285 -82.375 99.25 C-84.33842696 96.73681349 -84.43629991 94.77011637 -84.36401367 91.63183594 C-83.475653 86.67084752 -80.50679818 82.59221039 -77.875 78.375 C-76.58741335 76.24417098 -75.3009961 74.11263498 -74.015625 71.98046875 C-73.00918945 70.32797119 -73.00918945 70.32797119 -71.98242188 68.64208984 C-68.60660744 63.0423327 -65.37375474 57.36155618 -62.125 51.6875 C-60.86692969 49.50851132 -59.60784813 47.33010613 -58.34765625 45.15234375 C-56.32198443 41.65153307 -54.30757547 38.1450074 -52.30859375 34.62890625 C-42.98846542 18.40964093 -31.53141797 7.33925207 -13.72265625 1.12890625 C-9.06941019 0.04843116 -4.75764361 -0.0428295 0 0 Z " fill="#030101" transform="translate(254.9375,180.75)"/>
<path d="M0 0 C1.2556194 1.03110468 2.48241175 2.09776643 3.6875 3.1875 C4.55761719 3.96609375 5.42773438 4.7446875 6.32421875 5.546875 C18.72361448 17.25271654 27.31192317 32.14453594 29.6875 49.1875 C29.7861232 53.18995818 29.76110189 57.18478404 29.6875 61.1875 C28.76412842 61.20208252 27.84075684 61.21666504 26.8894043 61.23168945 C23.46172796 61.29276308 20.03485338 61.3669161 16.60766602 61.44995117 C15.12470146 61.48319423 13.64161056 61.51122823 12.15844727 61.53393555 C10.02565707 61.56749468 7.89402388 61.61980638 5.76171875 61.67578125 C3.83718872 61.71505737 3.83718872 61.71505737 1.8737793 61.75512695 C-1.25828283 61.92750902 -1.25828283 61.92750902 -3.19213867 63.53198242 C-4.50253494 65.30792077 -4.50253494 65.30792077 -5.3125 68.1875 C-8.58286728 68.33260162 -11.85241007 68.42149373 -15.125 68.5 C-16.05376953 68.54189453 -16.98253906 68.58378906 -17.93945312 68.62695312 C-20.48969714 68.67298641 -22.8069289 68.67082865 -25.3125 68.1875 C-27.38671875 65.73046875 -27.38671875 65.73046875 -28.3125 63.1875 C-30.39336887 61.10663113 -34.90886517 62.0016769 -37.77954102 61.98217773 C-38.66726196 61.97227814 -39.55498291 61.96237854 -40.46960449 61.95217896 C-43.41851082 61.92046516 -46.36743329 61.89576766 -49.31640625 61.87109375 C-51.3552239 61.85053274 -53.39403721 61.82953651 -55.43284607 61.80812073 C-60.81029755 61.7528119 -66.18778806 61.70344162 -71.56530762 61.65527344 C-77.04813121 61.60512258 -82.53089784 61.54940311 -88.01367188 61.49414062 C-98.7798993 61.38645135 -109.5461761 61.28503046 -120.3125 61.1875 C-120.3214872 59.57943732 -120.32791501 57.97136019 -120.33325195 56.36328125 C-120.33710403 55.46778564 -120.34095612 54.57229004 -120.34492493 53.6496582 C-120.28811591 49.33591574 -119.34962472 45.35556726 -118.3125 41.1875 C-118.11785156 40.37410156 -117.92320312 39.56070313 -117.72265625 38.72265625 C-113.27337845 22.05760981 -100.94479697 5.80348156 -86.20629883 -3.17504883 C-57.87640941 -19.39092894 -26.87721466 -18.88521193 0 0 Z " fill="#76718C" transform="translate(301.3125,74.8125)"/>
<path d="M0 0 C-0.36786621 0.47743652 -0.73573242 0.95487305 -1.11474609 1.44677734 C-17.54654445 23.02626421 -29.52876325 47.54815325 -41 72 C-29.12 72.33 -17.24 72.66 -5 73 C-5 73.33 -5 73.66 -5 74 C-34.37 74 -63.74 74 -94 74 C-94 66.41030633 -93.75784564 61.06454946 -92 54 C-91.80535156 53.18660156 -91.61070312 52.37320313 -91.41015625 51.53515625 C-86.96087845 34.87010981 -74.63229697 18.61598156 -59.89379883 9.63745117 C-41.3212432 -0.99338226 -20.98302103 -5.53436607 0 0 Z " fill="#5A556C" transform="translate(275,62)"/>
<path d="M0 0 C6.45181026 3.85468325 10.64734397 9.31050441 12.625 16.5 C12.83332847 19.31015852 12.95256786 22.01903077 12.9609375 24.828125 C12.9675943 25.61717224 12.9742511 26.40621948 12.98110962 27.21917725 C12.99119545 28.88323654 12.9959279 30.54733595 12.99560547 32.21142578 C12.99996345 34.72888629 13.03628168 37.24456952 13.07421875 39.76171875 C13.14360508 49.47345526 12.95867237 57.90082246 6.765625 65.90234375 C0.46477059 71.01853338 -4.60435757 73.84769457 -12.875 73.5625 C-19.92598028 72.67257045 -23.88246291 69.05990296 -28.6875 64.125 C-32.67861729 57.91659532 -33.83724168 52.16092953 -33.80859375 44.94140625 C-33.8138356 44.15281723 -33.81907745 43.36422821 -33.82447815 42.55174255 C-33.83085856 40.89542815 -33.82961341 39.2390682 -33.82104492 37.58276367 C-33.81253194 35.07192012 -33.84135395 32.56335421 -33.87304688 30.05273438 C-33.91761029 20.35214028 -33.75830315 12.54421714 -27.12109375 4.90625 C-26.35925781 4.2771875 -25.59742188 3.648125 -24.8125 3 C-24.04808594 2.3503125 -23.28367188 1.700625 -22.49609375 1.03125 C-16.5975282 -3.22701463 -6.50071799 -2.89914142 0 0 Z " fill="#050402" transform="translate(266.375,220.5)"/>
<path d="M0 0 C1.36935928 3.43164199 2.71782463 6.87111881 4.0625 10.3125 C4.45244141 11.28896484 4.84238281 12.26542969 5.24414062 13.27148438 C5.60830078 14.20927734 5.97246094 15.14707031 6.34765625 16.11328125 C6.68804932 16.97735596 7.02844238 17.84143066 7.37915039 18.73168945 C8 21 8 21 7 24 C4.55683892 25.34046916 2.15291041 26.53100889 -0.375 27.6875 C-21.11305186 37.64296296 -35.47403138 53.70490628 -44 75 C-45.2178795 78.8842429 -46.10995161 82.80473444 -46.91796875 86.79296875 C-48.42417772 91.2572199 -51.08909679 93.70551718 -54.9375 96.3125 C-57.85070222 97.28356741 -59.93972665 97.3672328 -63 97 C-66.76115969 94.93504958 -70.09650288 92.91274408 -72 89 C-74.64981957 71.73936975 -63.0221132 51.61685228 -53.47460938 37.97900391 C-42.27869462 22.95349315 -19.88950563 0 0 0 Z " fill="#4D4961" transform="translate(110,369)"/>
<path d="M0 0 C5.79710371 0.5142592 10.20832351 2.86083793 15.25 5.5625 C16.0968335 6.01359131 16.94366699 6.46468262 17.81616211 6.92944336 C24.12872213 10.36763704 29.66264957 14.16960221 35 19 C35.80179687 19.66128906 36.60359375 20.32257813 37.4296875 21.00390625 C54.71306432 35.62208945 70.04666988 59.22708547 72.203125 82.16015625 C72.31536504 86.71523126 71.92902987 89.48516416 69 93 C66.35476346 95.39330925 64.39983892 96.87408856 60.78515625 97.19921875 C56.73778042 96.96351467 54.45797328 96.32854605 51.125 93.9375 C47.99350175 89.60866418 46.58944583 85.17686428 45.2109375 80.0859375 C41.54980502 67.00136837 35.0128298 56.17060438 26 46 C25.40960938 45.31550781 24.81921875 44.63101563 24.2109375 43.92578125 C15.48104992 34.47149874 3.52641279 28.38321477 -8 23 C-5.81659819 15.13620323 -3.00714974 7.58324716 0 0 Z " fill="#5A556C" transform="translate(402,369)"/>
<path d="M0 0 C5.18649147 3.45766098 6.89322243 7.53357438 8.19921875 13.484375 C13.35760358 33.59221903 25.78596738 51.82357205 43.4375 62.9375 C44.55125 63.576875 45.665 64.21625 46.8125 64.875 C46.63074219 65.66197266 46.63074219 65.66197266 46.4453125 66.46484375 C44.62919088 74.86091371 43.74262805 83.34552786 42.8125 91.875 C24.32038071 83.67849307 7.41630336 69.20919668 -3.1875 51.875 C-3.76757812 50.98941406 -4.34765625 50.10382813 -4.9453125 49.19140625 C-12.12285894 37.74151074 -19.84491606 20.65227097 -18.1875 6.875 C-14.8459228 -1.21513427 -7.88193697 -2.78186011 0 0 Z " fill="#4E4A62" transform="translate(56.1875,114.125)"/>
<path d="M0 0 C3.09432618 2.51414003 5.59682526 4.71364201 6.30859375 8.75 C7.41155273 28.00164774 -5.90453518 50.00829031 -18 64 C-28.7419745 75.92876488 -40.24380589 85.37137104 -55 92 C-55.03738281 91.18917969 -55.07476562 90.37835938 -55.11328125 89.54296875 C-55.51335173 82.80452675 -56.37810016 76.69454781 -58.37890625 70.2421875 C-59 68 -59 68 -59 65 C-57.1640625 63.4921875 -57.1640625 63.4921875 -54.625 61.875 C-39.4944393 51.62457789 -29.83348581 38.86803972 -23 22 C-22.68417969 21.23816406 -22.36835938 20.47632813 -22.04296875 19.69140625 C-20.7558587 16.43875869 -19.80364558 13.22050276 -19.0625 9.8125 C-17.72207407 5.00273636 -16.05382491 2.29097566 -11.8125 -0.375 C-7.70783455 -1.28714788 -4.05093072 -1.15950553 0 0 Z " fill="#5B566C" transform="translate(468,114)"/>
<path d="M0 0 C0.65392731 -0.00014603 1.30785461 -0.00029205 1.9815979 -0.0004425 C4.14051646 0.00025351 6.29934848 0.00803131 8.45825195 0.01586914 C9.95612033 0.01773443 11.45398932 0.01915781 12.95185852 0.02015686 C16.89248339 0.02397333 20.83307135 0.03379619 24.77368164 0.04486084 C28.79548646 0.05509367 32.81729724 0.05965849 36.83911133 0.06469727 C44.7291041 0.07541923 52.61905981 0.093009 60.5090332 0.11352539 C60.5090332 8.36352539 60.5090332 16.61352539 60.5090332 25.11352539 C51.59892056 25.20395161 42.68911347 25.27731311 33.77864552 25.32077408 C29.64099368 25.34163487 25.50367249 25.36992437 21.36621094 25.4152832 C17.37210027 25.45879567 13.37830731 25.48267385 9.38397789 25.49303436 C7.86133511 25.50041612 6.33870942 25.51483125 4.81620216 25.53644562 C2.68063632 25.56555317 0.54637734 25.56947859 -1.58935547 25.56762695 C-2.80403 25.5765094 -4.01870453 25.58539185 -5.27018738 25.59454346 C-9.13943951 25.01667707 -10.72927308 23.83174677 -13.4909668 21.11352539 C-16.32932817 16.85598333 -16.37522065 13.10918177 -15.4909668 8.11352539 C-11.64380259 1.35368165 -7.58237322 -0.01422584 0 0 Z " fill="#4E4A62" transform="translate(38.490966796875,268.886474609375)"/>
<path d="M0 0 C8.63207393 -0.09049025 17.26383111 -0.1638245 25.89627266 -0.20724869 C29.90498652 -0.2280937 33.91335811 -0.25635406 37.921875 -0.30175781 C41.79279809 -0.34532699 45.66339265 -0.36916032 49.53454208 -0.37950897 C51.00891158 -0.3868806 52.48326378 -0.40127592 53.95749283 -0.42292023 C56.02820459 -0.45210357 58.0975716 -0.4559501 60.16845703 -0.45410156 C61.93384323 -0.46742523 61.93384323 -0.46742523 63.7348938 -0.48101807 C68.4446587 0.21282828 71.3985075 2.55865675 74.875 5.6875 C76.68305607 9.4040597 76.63792623 12.95512709 76 17 C73.93210032 21.0619458 72.26385063 23.40138448 68 25 C64.93743896 25.24050903 64.93743896 25.24050903 61.30371094 25.22705078 C60.30797058 25.22748886 60.30797058 25.22748886 59.29211426 25.22793579 C57.10606649 25.22654658 54.92036296 25.21100503 52.734375 25.1953125 C51.21551703 25.19158091 49.69665665 25.18873463 48.17779541 25.18673706 C44.18617063 25.1791121 40.19469211 25.15947344 36.203125 25.1373291 C32.12762429 25.11684614 28.05209988 25.10773011 23.9765625 25.09765625 C15.9843005 25.07622639 7.99218531 25.04105358 0 25 C0 16.75 0 8.5 0 0 Z " fill="#5B566D" transform="translate(413,269)"/>
<path d="M0 0 C4.10601848 1.77305344 6.66278175 4.19119988 9 8 C11.35137516 22.10825095 0.48461978 40.66012335 -7 52 C-21.30176587 71.41524641 -21.30176587 71.41524641 -28.29296875 73.7734375 C-29.13794922 73.88558594 -29.13794922 73.88558594 -30 74 C-30.50789063 73.28714844 -31.01578125 72.57429688 -31.5390625 71.83984375 C-35.48793341 66.34544096 -39.5045583 61.05737191 -44 56 C-42.56580551 52.91841994 -40.99169961 50.8963555 -38.546875 48.5234375 C-27.89208687 38.03008555 -21.91294203 27.10787299 -17.57202148 12.94213867 C-15.92387305 7.78103063 -14.33379779 4.52734674 -10 1 C-6.80436932 -0.59781534 -3.4765367 -0.36841911 0 0 Z " fill="#5A556C" transform="translate(363,15)"/>
<path d="M0 0 C5.71143099 4.153768 7.02350128 10.7887573 9.0625 17.25 C13.51525394 31.12918245 22.02533252 44.1543434 33.75 53 C32.0350816 56.9657488 29.40226582 60.19412241 26.75 63.5625 C24.32888121 66.65807332 21.9318227 69.72726594 19.75 73 C15.00682953 71.55337684 11.97454383 68.76534555 8.5625 65.3125 C7.71147705 64.45180908 7.71147705 64.45180908 6.84326172 63.57373047 C-6.16879279 50.00594899 -18.23251942 29.64127513 -19.875 10.625 C-19.04515908 5.81192265 -16.84102298 3.20959308 -13.25 0 C-9.01862469 -2.11568766 -4.34814171 -1.33788976 0 0 Z " fill="#4E4A61" transform="translate(159.25,16)"/>
<path d="M0 0 C4.42685813 4.0856014 7.67130094 8.28507222 8.40625 14.35546875 C8.58583332 21.69593697 8.48943931 27.2889548 3.71484375 33.265625 C1.33915136 35.66837539 -1.01730283 37.41345895 -4 39 C-4.7425 39.4125 -5.485 39.825 -6.25 40.25 C-13.722467 42.28794554 -19.97365288 41.35704172 -26.73046875 37.6328125 C-31.23380946 34.39288751 -34.25307341 30.24077977 -36 25 C-36.65052581 17.68623125 -37.22112 10.76729573 -32.62890625 4.68359375 C-23.49207153 -4.75999321 -11.53114004 -7.56248763 0 0 Z " fill="#030302" transform="translate(270,313)"/>
<path d="M0 0 C0.99 0.01933594 0.99 0.01933594 2 0.0390625 C2.66 0.02617187 3.32 0.01328125 4 0 C7.17036767 1.05266114 8.20429802 2.89469304 10 5.6640625 C10.39064429 8.38825363 10.56257515 10.69734633 10.53125 13.4140625 C10.5350769 14.14979492 10.53890381 14.88552734 10.54284668 15.64355469 C10.54555903 17.19337336 10.53824519 18.74323834 10.52148438 20.29296875 C10.50006133 22.65729393 10.52130511 25.01858116 10.546875 27.3828125 C10.5442316 28.89323583 10.53910636 30.40365729 10.53125 31.9140625 C10.53934692 32.6162793 10.54744385 33.31849609 10.55578613 34.04199219 C10.46478131 38.83588227 9.44215427 41.33133184 6 44.6640625 C3.0625 45.7265625 3.0625 45.7265625 0 45.6640625 C-2.74716387 43.89366801 -4.53145922 42.60114406 -6 39.6640625 C-6.13509379 37.16920624 -6.2125861 34.70352406 -6.23828125 32.20703125 C-6.246353 31.46705399 -6.25442474 30.72707672 -6.26274109 29.9646759 C-6.27657883 28.39696595 -6.28730238 26.82922591 -6.29516602 25.26147461 C-6.31236022 22.87099618 -6.35624349 20.48190791 -6.40039062 18.09179688 C-6.41051956 16.56771849 -6.41903503 15.04362836 -6.42578125 13.51953125 C-6.44328934 12.80790329 -6.46079742 12.09627533 -6.47883606 11.36308289 C-6.46308933 7.73599681 -6.08299534 5.79279106 -4.09838867 2.71459961 C-2 0.6640625 -2 0.6640625 0 0 Z " fill="#706B85" transform="translate(254,233.3359375)"/>
<path d="M0 0 C2.375 1 2.375 1 4 3 C4.5659239 7.45665069 4.82483134 9.73102871 2.375 13.5 C-0.72140596 15.45562482 -2.39853135 15.60024477 -6 15 C-8.375 13.5 -8.375 13.5 -10 11 C-10.58428517 8.0368395 -10.39344818 6.09840439 -10 3 C-7.19663749 -0.45029232 -4.26211439 -0.5327643 0 0 Z " fill="#736E88" transform="translate(259,324)"/>
</svg>
