<?xml version="1.0" encoding="UTF-8"?>
<svg version="1.1" xmlns="http://www.w3.org/2000/svg" width="213" height="145">
<path d="M0 0 C1.73243067 -0.00541127 3.46485536 -0.01319373 5.19726562 -0.02319336 C8.80137838 -0.03488458 12.40388851 -0.0181892 16.0078125 0.01953125 C20.58076603 0.06511427 25.14996199 0.03881289 29.72277832 -0.00904846 C33.29226968 -0.03824048 36.8608997 -0.02862971 40.43041992 -0.00802612 C42.1141812 -0.00276687 43.79802607 -0.00895964 45.48168945 -0.02786255 C58.02183967 -0.13782778 66.75007572 2.60167762 77.5 9.0625 C77.5 9.7225 77.5 10.3825 77.5 11.0625 C78.22703125 11.00578125 78.9540625 10.9490625 79.703125 10.890625 C83.01501116 11.09414873 84.49981833 11.99702059 87.25 13.8125 C91.02968435 16.19558544 94.71778597 18.126425 98.8203125 19.87109375 C108.27596131 24.07513586 117.54269954 28.88717084 126.5 34.0625 C126.5 34.7225 126.5 35.3825 126.5 36.0625 C124.025 36.5575 124.025 36.5575 121.5 37.0625 C121.5 37.7225 121.5 38.3825 121.5 39.0625 C120.30117188 39.60777344 120.30117188 39.60777344 119.078125 40.1640625 C111.46957818 43.64684802 103.96748743 47.28648749 96.5 51.0625 C94.12552148 52.25105988 91.75058167 53.43865124 89.375 54.625 C87.6115625 55.50671875 87.6115625 55.50671875 85.8125 56.40625 C77.375 60.625 77.375 60.625 75.01953125 61.796875 C73.11499217 62.7535737 71.21778959 63.72489652 69.32421875 64.703125 C68.24785156 65.25484375 67.17148438 65.8065625 66.0625 66.375 C65.07378906 66.88675781 64.08507812 67.39851563 63.06640625 67.92578125 C60.5 69.0625 60.5 69.0625 57.5 69.0625 C57.5 68.0725 57.5 67.0825 57.5 66.0625 C58.16 66.0625 58.82 66.0625 59.5 66.0625 C59.70625 65.30195312 59.9125 64.54140625 60.125 63.7578125 C62.07067923 58.52879956 64.7885236 53.80408854 67.5 48.9375 C68.58385348 46.97684995 69.66720677 45.01592328 70.75 43.0546875 C71.22953125 42.19214355 71.7090625 41.32959961 72.203125 40.44091797 C73.35108372 38.33560663 74.44395354 36.2150664 75.5 34.0625 C75.13648438 33.55203125 74.77296875 33.0415625 74.3984375 32.515625 C70.11145716 26.31599189 66.76690957 19.84339633 63.5 13.0625 C62.50165887 11.06167142 61.5018693 9.06156426 60.5 7.0625 C60.48969254 7.60849854 60.47938507 8.15449707 60.46876526 8.71704102 C60.36012621 14.42784217 60.24557934 20.13850366 60.12768555 25.84912109 C60.08451967 27.9770209 60.04283262 30.10495126 60.00268555 32.23291016 C59.94453592 35.30120022 59.88097293 38.36933906 59.81640625 41.4375 C59.79969376 42.38052979 59.78298126 43.32355957 59.76576233 44.29516602 C59.43650815 59.15773777 59.43650815 59.15773777 55.5 65.0625 C55.04625 66.196875 54.5925 67.33125 54.125 68.5 C49.88923883 77.7860918 42.33975708 82.2107541 33.125 86 C29.6046924 87.0318143 28.76747089 87.1060755 25.5 86.0625 C25.36722656 85.18207031 25.23445313 84.30164063 25.09765625 83.39453125 C24.92105469 82.23308594 24.74445313 81.07164062 24.5625 79.875 C24.30146484 78.15216797 24.30146484 78.15216797 24.03515625 76.39453125 C23.58608982 73.59851907 23.06981516 70.83560046 22.5 68.0625 C22.16055205 66.06352872 21.82578384 64.06374361 21.5 62.0625 C21.17 62.0625 20.84 62.0625 20.5 62.0625 C20.314375 63.980625 20.314375 63.980625 20.125 65.9375 C19.31625171 73.17067129 18.02233516 80.2161617 15.5 87.0625 C4.37274932 84.67808914 -5.44320143 79.67488495 -11.953125 69.875 C-12.92307274 67.96405818 -13.74367476 66.06609843 -14.5 64.0625 C-15.0878125 62.7940625 -15.0878125 62.7940625 -15.6875 61.5 C-17.85122218 55.00883345 -17.63446762 48.29785453 -17.59765625 41.53515625 C-17.5962413 40.54623886 -17.59482635 39.55732147 -17.59336853 38.53843689 C-17.58780088 35.40059296 -17.5752544 32.26282213 -17.5625 29.125 C-17.55748082 26.98893333 -17.55291864 24.85286553 -17.54882812 22.71679688 C-17.53784206 17.49867325 -17.52113636 12.28059185 -17.5 7.0625 C-18.16 7.0625 -18.82 7.0625 -19.5 7.0625 C-19.60957031 7.79210938 -19.71914062 8.52171875 -19.83203125 9.2734375 C-20.54015105 12.23014825 -21.5600932 14.13319746 -23.1875 16.6875 C-26.89858671 22.65750905 -30.3554533 28.77340659 -33.5 35.0625 C-32.26083528 37.53169556 -30.96529622 39.87554473 -29.5625 42.25 C-28.7290634 43.69450256 -27.89706643 45.13983657 -27.06640625 46.5859375 C-26.6398877 47.32553711 -26.21336914 48.06513672 -25.77392578 48.82714844 C-23.78856593 52.31085002 -21.88685038 55.83721025 -20 59.375 C-19.66234619 60.00237061 -19.32469238 60.62974121 -18.97680664 61.27612305 C-17.60421119 63.85226462 -16.42534634 66.28646098 -15.5 69.0625 C-20.07780975 68.4706919 -23.65953671 66.53607694 -27.625 64.3125 C-32.94703441 61.39803717 -38.29215944 58.71911398 -43.84375 56.26171875 C-48.80681557 54.02104062 -53.64070506 51.51796426 -58.5 49.0625 C-61.20710123 47.70586613 -63.91609441 46.35302656 -66.625 45 C-67.98180303 44.32167899 -69.33857458 43.64329499 -70.6953125 42.96484375 C-71.66259277 42.48120361 -71.66259277 42.48120361 -72.64941406 41.98779297 C-78.57470703 39.02514648 -78.57470703 39.02514648 -84.5 36.0625 C-84.5 35.0725 -84.5 34.0825 -84.5 33.0625 C-83.345 32.5675 -82.19 32.0725 -81 31.5625 C-73.70845171 28.32181187 -66.62130662 24.65721879 -59.5 21.0625 C-42.86915968 12.66752457 -42.86915968 12.66752457 -37.06665039 10.26049805 C-34.33408755 9.03134005 -34.33408755 9.03134005 -31.2109375 7.15454102 C-20.67802527 1.13207907 -11.99512537 -0.13467228 0 0 Z M19.5 11.0625 C17.03598046 13.05744751 17.03598046 13.05744751 17.48046875 17.01953125 C17.57073544 19.45673183 17.68833239 21.88820228 17.84179688 24.32226562 C18.03678452 30.42687896 18.03678452 30.42687896 15.0390625 33.9765625 C14.20117188 34.66492188 13.36328125 35.35328125 12.5 36.0625 C12.231875 36.908125 11.96375 37.75375 11.6875 38.625 C10.05255203 41.98094583 7.91637719 42.53561195 4.60546875 44.03125 C0.77091916 45.90939674 -2.75122485 48.26543964 -4.4375 52.3125 C-4.458125 52.89 -4.47875 53.4675 -4.5 54.0625 C-4.17 54.3925 -3.84 54.7225 -3.5 55.0625 C2.91691518 55.0625 6.74726146 52.16119011 11.8515625 48.4609375 C14.5 47.0625 14.5 47.0625 17.3359375 47.3515625 C18.05007812 47.58617187 18.76421875 47.82078125 19.5 48.0625 C19.5 47.4025 19.5 46.7425 19.5 46.0625 C25.12137623 47.42598274 29.86272046 49.10817744 34.75 52.25 C38.49510235 54.64237611 40.93908078 55.78264514 45.5 55.0625 C45.83 54.0725 46.16 53.0825 46.5 52.0625 C44.87660195 50.35365995 43.20680947 48.68803283 41.5 47.0625 C40.84 47.0625 40.18 47.0625 39.5 47.0625 C39.5 46.4025 39.5 45.7425 39.5 45.0625 C35.2362719 42.70339647 35.2362719 42.70339647 30.5 42.0625 C30.438125 40.99 30.37625 39.9175 30.3125 38.8125 C29.92364351 34.92052347 29.92364351 34.92052347 26.9609375 33.36328125 C24.5 31.0625 24.5 31.0625 24.12280273 29.20166016 C24.07997422 26.95047013 24.16272856 24.74657162 24.3125 22.5 C24.81516568 16.48885568 24.81516568 16.48885568 22.5 11.0625 C21.51 11.0625 20.52 11.0625 19.5 11.0625 Z " fill="#F4F4F2" transform="translate(85.5,52.9375)"/>
<path d="M0 0 C1.73243067 -0.00541127 3.46485536 -0.01319373 5.19726562 -0.02319336 C8.80137838 -0.03488458 12.40388851 -0.0181892 16.0078125 0.01953125 C20.58076603 0.06511427 25.14996199 0.03881289 29.72277832 -0.00904846 C33.29226968 -0.03824048 36.8608997 -0.02862971 40.43041992 -0.00802612 C42.1141812 -0.00276687 43.79802607 -0.00895964 45.48168945 -0.02786255 C58.02183967 -0.13782778 66.75007572 2.60167762 77.5 9.0625 C77.5 9.7225 77.5 10.3825 77.5 11.0625 C78.22703125 11.00578125 78.9540625 10.9490625 79.703125 10.890625 C83.01501116 11.09414873 84.49981833 11.99702059 87.25 13.8125 C91.02968435 16.19558544 94.71778597 18.126425 98.8203125 19.87109375 C108.27596131 24.07513586 117.54269954 28.88717084 126.5 34.0625 C126.5 34.7225 126.5 35.3825 126.5 36.0625 C124.025 36.5575 124.025 36.5575 121.5 37.0625 C121.5 37.7225 121.5 38.3825 121.5 39.0625 C120.30117188 39.60777344 120.30117188 39.60777344 119.078125 40.1640625 C111.46957818 43.64684802 103.96748743 47.28648749 96.5 51.0625 C94.12552148 52.25105988 91.75058167 53.43865124 89.375 54.625 C87.6115625 55.50671875 87.6115625 55.50671875 85.8125 56.40625 C77.375 60.625 77.375 60.625 75.01953125 61.796875 C73.11499217 62.7535737 71.21778959 63.72489652 69.32421875 64.703125 C68.24785156 65.25484375 67.17148438 65.8065625 66.0625 66.375 C65.07378906 66.88675781 64.08507812 67.39851563 63.06640625 67.92578125 C60.5 69.0625 60.5 69.0625 57.5 69.0625 C57.5 68.0725 57.5 67.0825 57.5 66.0625 C58.16 66.0625 58.82 66.0625 59.5 66.0625 C59.70625 65.30195312 59.9125 64.54140625 60.125 63.7578125 C62.07067923 58.52879956 64.7885236 53.80408854 67.5 48.9375 C68.58385348 46.97684995 69.66720677 45.01592328 70.75 43.0546875 C71.22953125 42.19214355 71.7090625 41.32959961 72.203125 40.44091797 C73.35108372 38.33560663 74.44395354 36.2150664 75.5 34.0625 C75.13648438 33.55203125 74.77296875 33.0415625 74.3984375 32.515625 C70.11145716 26.31599189 66.76690957 19.84339633 63.5 13.0625 C62.51 11.0825 61.52 9.1025 60.5 7.0625 C60.17 21.9125 59.84 36.7625 59.5 52.0625 C59.17 52.0625 58.84 52.0625 58.5 52.0625 C58.5 35.5625 58.5 19.0625 58.5 2.0625 C33.75 2.0625 9 2.0625 -16.5 2.0625 C-16.5 16.5825 -16.5 31.1025 -16.5 46.0625 C-16.83 46.0625 -17.16 46.0625 -17.5 46.0625 C-17.5 33.1925 -17.5 20.3225 -17.5 7.0625 C-18.16 7.0625 -18.82 7.0625 -19.5 7.0625 C-19.60957031 7.79210938 -19.71914062 8.52171875 -19.83203125 9.2734375 C-20.54015105 12.23014825 -21.5600932 14.13319746 -23.1875 16.6875 C-26.89858671 22.65750905 -30.3554533 28.77340659 -33.5 35.0625 C-32.26083528 37.53169556 -30.96529622 39.87554473 -29.5625 42.25 C-28.7290634 43.69450256 -27.89706643 45.13983657 -27.06640625 46.5859375 C-26.6398877 47.32553711 -26.21336914 48.06513672 -25.77392578 48.82714844 C-23.78856593 52.31085002 -21.88685038 55.83721025 -20 59.375 C-19.66234619 60.00237061 -19.32469238 60.62974121 -18.97680664 61.27612305 C-17.60421119 63.85226462 -16.42534634 66.28646098 -15.5 69.0625 C-20.07780975 68.4706919 -23.65953671 66.53607694 -27.625 64.3125 C-32.94703441 61.39803717 -38.29215944 58.71911398 -43.84375 56.26171875 C-48.80681557 54.02104062 -53.64070506 51.51796426 -58.5 49.0625 C-61.20710123 47.70586613 -63.91609441 46.35302656 -66.625 45 C-67.98180303 44.32167899 -69.33857458 43.64329499 -70.6953125 42.96484375 C-71.66259277 42.48120361 -71.66259277 42.48120361 -72.64941406 41.98779297 C-78.57470703 39.02514648 -78.57470703 39.02514648 -84.5 36.0625 C-84.5 35.0725 -84.5 34.0825 -84.5 33.0625 C-83.345 32.5675 -82.19 32.0725 -81 31.5625 C-73.70845171 28.32181187 -66.62130662 24.65721879 -59.5 21.0625 C-42.86915968 12.66752457 -42.86915968 12.66752457 -37.06665039 10.26049805 C-34.33408755 9.03134005 -34.33408755 9.03134005 -31.2109375 7.15454102 C-20.67802527 1.13207907 -11.99512537 -0.13467228 0 0 Z " fill="#EBEBEA" transform="translate(85.5,52.9375)"/>
<path d="M0 0 C3.94256518 0.22528944 5.54492847 0.50412895 8.265625 3.46875 C8.92046875 4.4690625 9.5753125 5.469375 10.25 6.5 C12.56369155 10.37097053 12.56369155 10.37097053 16 13 C16.99 12.67 17.98 12.34 19 12 C21.49105024 11.90364538 23.94740703 11.8606754 26.4375 11.875 C27.75621094 11.87242188 29.07492188 11.86984375 30.43359375 11.8671875 C33.20238454 11.9702969 35.39077114 12.15917433 38 13 C38.54269531 12.31292969 39.08539063 11.62585937 39.64453125 10.91796875 C40.35996094 10.01691406 41.07539062 9.11585937 41.8125 8.1875 C42.52019531 7.29417969 43.22789063 6.40085937 43.95703125 5.48046875 C47.27872861 1.44743276 47.27872861 1.44743276 49 0 C51.1875 0.3125 51.1875 0.3125 53 1 C54.14947895 4.55293493 54.0868937 5.79976669 52.5625 9.3125 C51.7890625 10.6428125 51.7890625 10.6428125 51 12 C50.34 12 49.68 12 49 12 C47.79371992 14.33214148 46.8345262 16.49642139 46 19 C46.598125 19.268125 47.19625 19.53625 47.8125 19.8125 C50.01819033 21.00987475 51.43583187 22.04478984 53 24 C53 24.99 53 25.98 53 27 C53.66 27 54.32 27 55 27 C59.69580731 36.43354148 59.69580731 36.43354148 59 42 C58 43 58 43 55.45005798 43.12025452 C53.74795921 43.1169236 53.74795921 43.1169236 52.01147461 43.11352539 C50.73022202 43.11344986 49.44896942 43.11337433 48.12889099 43.11329651 C46.72004152 43.10818909 45.31119244 43.10297309 43.90234375 43.09765625 C42.46887766 43.09579202 41.03541093 43.09436814 39.60194397 43.09336853 C35.82240043 43.08954372 32.0428951 43.07971377 28.2633667 43.06866455 C24.40930702 43.05844963 20.55524118 43.05387074 16.70117188 43.04882812 C9.13409713 43.03809146 1.56705391 43.02101549 -6 43 C-6.07492828 38.43171623 -6.03183743 35.18966978 -4 31.0625 C-3.62875 30.29035156 -3.2575 29.51820312 -2.875 28.72265625 C-2.441875 27.86994141 -2.441875 27.86994141 -2 27 C-1.34 27 -0.68 27 0 27 C0.0825 26.4225 0.165 25.845 0.25 25.25 C1.21797787 22.3460664 2.68694284 20.96259396 5 19 C5.66 19 6.32 19 7 19 C6.505 18.21625 6.01 17.4325 5.5 16.625 C4 14 4 14 4 12 C3.34 12 2.68 12 2 12 C-0.62248477 8.79474083 -1.03113289 7.37982123 -0.6875 3.1875 C-0.460625 2.135625 -0.23375 1.08375 0 0 Z " fill="#EBEBEA" transform="translate(80,7)"/>
<path d="M0 0 C1.86436778 10.86397029 -3.49156245 18.18025216 -9 27 C-9.33 27.66 -9.66 28.32 -10 29 C-8.76083528 31.46919556 -7.46529622 33.81304473 -6.0625 36.1875 C-5.2290634 37.63200256 -4.39706643 39.07733657 -3.56640625 40.5234375 C-3.1398877 41.26303711 -2.71336914 42.00263672 -2.27392578 42.76464844 C-0.28856593 46.24835002 1.61314962 49.77471025 3.5 53.3125 C3.83765381 53.93987061 4.17530762 54.56724121 4.52319336 55.21362305 C5.89578881 57.78976462 7.07465366 60.22396098 8 63 C3.42219025 62.4081919 -0.15953671 60.47357694 -4.125 58.25 C-9.44703441 55.33553717 -14.79215944 52.65661398 -20.34375 50.19921875 C-25.30681557 47.95854062 -30.14070506 45.45546426 -35 43 C-37.70710123 41.64336613 -40.41609441 40.29052656 -43.125 38.9375 C-44.48180303 38.25917899 -45.83857458 37.58079499 -47.1953125 36.90234375 C-48.16259277 36.41870361 -48.16259277 36.41870361 -49.14941406 35.92529297 C-53.09960938 33.95019531 -57.04980469 31.97509766 -61 30 C-61 29.01 -61 28.02 -61 27 C-59.845 26.505 -58.69 26.01 -57.5 25.5 C-50.20845171 22.25931187 -43.12130662 18.59471879 -36 15 C-6.28429603 0 -6.28429603 0 0 0 Z " fill="#EFEFED" transform="translate(62,59)"/>
<path d="M0 0 C0.77488266 -0.00525696 1.54976532 -0.01051392 2.34812927 -0.01593018 C4.88830204 -0.0290459 7.42783938 -0.02042501 9.96801758 -0.01025391 C11.74205139 -0.01227645 13.51608438 -0.0151894 15.29011536 -0.01895142 C18.99785319 -0.0233628 22.70537348 -0.01697971 26.41308594 -0.00292969 C31.16459718 0.01419912 35.91560138 0.00429028 40.66709423 -0.01364708 C44.32595139 -0.02448503 47.98468819 -0.02103919 51.64354897 -0.0132637 C53.39583713 -0.01126367 55.14813624 -0.01371407 56.90041161 -0.02070236 C59.34666328 -0.02832125 61.79209097 -0.0167088 64.23828125 0 C65.32230225 -0.00910904 65.32230225 -0.00910904 66.42822266 -0.0184021 C70.54074823 0.03363833 72.93470928 0.48411279 75.92504883 3.38818359 C74.27504883 3.71818359 72.62504883 4.04818359 70.92504883 4.38818359 C70.59504883 19.89818359 70.26504883 35.40818359 69.92504883 51.38818359 C69.59504883 51.38818359 69.26504883 51.38818359 68.92504883 51.38818359 C68.92504883 34.88818359 68.92504883 18.38818359 68.92504883 1.38818359 C44.17504883 1.38818359 19.42504883 1.38818359 -6.07495117 1.38818359 C-6.07495117 15.90818359 -6.07495117 30.42818359 -6.07495117 45.38818359 C-6.40495117 45.38818359 -6.73495117 45.38818359 -7.07495117 45.38818359 C-7.07495117 32.51818359 -7.07495117 19.64818359 -7.07495117 6.38818359 C-7.73495117 6.38818359 -8.39495117 6.38818359 -9.07495117 6.38818359 C-9.17807617 7.13068359 -9.28120117 7.87318359 -9.38745117 8.63818359 C-10.11748622 11.55832377 -11.14284515 13.12005913 -13.07495117 15.38818359 C-13.07495117 14.06818359 -13.07495117 12.74818359 -13.07495117 11.38818359 C-13.73495117 11.05818359 -14.39495117 10.72818359 -15.07495117 10.38818359 C-14.41495117 8.73818359 -13.75495117 7.08818359 -13.07495117 5.38818359 C-14.72495117 5.71818359 -16.37495117 6.04818359 -18.07495117 6.38818359 C-13.50093847 0.73793261 -6.81679895 -0.05776705 0 0 Z " fill="#969694" transform="translate(75.074951171875,53.61181640625)"/>
<path d="M0 0 C2.74609375 0.15625 2.74609375 0.15625 6 1 C8.16015625 3.46875 8.16015625 3.46875 10.0625 6.5 C12.55520428 10.74133773 12.55520428 10.74133773 16.74609375 12.84375 C17.86177734 12.92109375 17.86177734 12.92109375 19 13 C19 13.66 19 14.32 19 15 C14.545 15.495 14.545 15.495 10 16 C9.67 17.32 9.34 18.64 9 20 C6.53721199 22.46278801 4.29323018 22.99771255 1 24 C2.28062485 22.2925002 3.61767557 20.62626404 5 19 C5.66 19 6.32 19 7 19 C6.2575 17.824375 6.2575 17.824375 5.5 16.625 C4 14 4 14 4 12 C3.34 12 2.68 12 2 12 C-0.62248477 8.79474083 -1.03113289 7.37982123 -0.6875 3.1875 C-0.460625 2.135625 -0.23375 1.08375 0 0 Z " fill="#CACAC8" transform="translate(80,7)"/>
<path d="M0 0 C0 14.52 0 29.04 0 44 C-0.33 44 -0.66 44 -1 44 C-1 31.13 -1 18.26 -1 5 C-1.66 5 -2.32 5 -3 5 C-3.103125 5.7425 -3.20625 6.485 -3.3125 7.25 C-4.04253504 10.17014018 -5.06789398 11.73187554 -7 14 C-7 12.68 -7 11.36 -7 10 C-7.66 9.67 -8.32 9.34 -9 9 C-8.34 7.35 -7.68 5.7 -7 4 C-8.65 4.33 -10.3 4.66 -12 5 C-8.55392327 1.00980589 -5.20909181 0 0 0 Z " fill="#999997" transform="translate(69,55)"/>
<path d="M0 0 C0.99 0.33 1.98 0.66 3 1 C4.051875 1.3403125 4.051875 1.3403125 5.125 1.6875 C7 3 7 3 7.875 5.9375 C8 9 8 9 6 12 C4.125 12.3984375 4.125 12.3984375 2 12.375 C1.29875 12.38273437 0.5975 12.39046875 -0.125 12.3984375 C-2 12 -2 12 -4 9 C-3.65084845 5.50848452 -1.86101593 2.9128945 0 0 Z " fill="#D6D7D5" transform="translate(104,85)"/>
<path d="M0 0 C4.31200157 0.49000018 6.62989521 1.32715827 10 4 C10.99 4 11.98 4 13 4 C13 4.66 13 5.32 13 6 C8.545 6.495 8.545 6.495 4 7 C3.67 8.32 3.34 9.64 3 11 C0.53721199 13.46278801 -1.70676982 13.99771255 -5 15 C-3.71937515 13.2925002 -2.38232443 11.62626404 -1 10 C-0.34 10 0.32 10 1 10 C0.67 6.7 0.34 3.4 0 0 Z " fill="#C3C3C1" transform="translate(86,16)"/>
<path d="M0 0 C0.7425 0.350625 1.485 0.70125 2.25 1.0625 C5.83117796 2.28335612 7.54100743 1.30673053 11 0 C11.66 0.33 12.32 0.66 13 1 C8.35796103 3.53309233 4.34844008 5.46515599 -1 6 C-1.33 4.35 -1.66 2.7 -2 1 C-1.34 0.67 -0.68 0.34 0 0 Z " fill="#A8A8A7" transform="translate(113,134)"/>
<path d="M0 0 C1.98 0.495 1.98 0.495 4 1 C5.14947895 4.55293493 5.0868937 5.79976669 3.5625 9.3125 C2.7890625 10.6428125 2.7890625 10.6428125 2 12 C1.01 10.68 0.02 9.36 -1 8 C0 6 1 4 2 2 C1.34 1.34 0.68 0.68 0 0 Z " fill="#B8B8B8" transform="translate(129,7)"/>
<path d="M0 0 C0.66 0.33 1.32 0.66 2 1 C1.125 5.875 1.125 5.875 0 7 C-2.67058851 7.14115161 -5.32432238 7.04247107 -8 7 C-7.67 6.34 -7.34 5.68 -7 5 C-5.35 5 -3.7 5 -2 5 C-1.34 3.35 -0.68 1.7 0 0 Z " fill="#A9A9A8" transform="translate(110,90)"/>
<path d="M0 0 C6.625 0.75 6.625 0.75 10 3 C10 3.66 10 4.32 10 5 C6.05140217 4.4359146 3.29120954 3.2568294 0 1 C0 0.67 0 0.34 0 0 Z " fill="#B9B9B9" transform="translate(60,117)"/>
<path d="M0 0 C0.33 1.32 0.66 2.64 1 4 C-1.97 6.475 -1.97 6.475 -5 9 C-5.66 8.67 -6.32 8.34 -7 8 C-4.69 5.36 -2.38 2.72 0 0 Z " fill="#9E9E9E" transform="translate(124,13)"/>
<path d="M0 0 C1.65 0.33 3.3 0.66 5 1 C3 4 3 4 0.875 4.6875 C0.25625 4.790625 -0.3625 4.89375 -1 5 C-0.67 3.35 -0.34 1.7 0 0 Z " fill="#C6C6C4" transform="translate(93,91)"/>
<path d="M0 0 C0.33 0.99 0.66 1.98 1 3 C1.66 3 2.32 3 3 3 C2.34 4.98 1.68 6.96 1 9 C0.87625 8.360625 0.7525 7.72125 0.625 7.0625 C0.315625 6.0415625 0.315625 6.0415625 0 5 C-0.66 4.67 -1.32 4.34 -2 4 C-1.34 2.68 -0.68 1.36 0 0 Z " fill="#B3B3B2" transform="translate(62,60)"/>
</svg>
